<mxfile host="app.diagrams.net" modified="2022-12-15T16:24:47.166Z" agent="5.0 (Windows NT 10.0; Win64; x64) AppleWebKit/537.36 (KHTML, like Gecko) Chrome/108.0.0.0 Safari/537.36" etag="-qvE5F5Srhz4uFoKsE83" version="20.3.7" type="github">
  <diagram id="gasooFI3-UzfgPxFfxHz" name="Page-1">
    <mxGraphModel dx="1422" dy="705" grid="1" gridSize="10" guides="1" tooltips="1" connect="1" arrows="1" fold="1" page="1" pageScale="1" pageWidth="850" pageHeight="1100" math="0" shadow="0">
      <root>
        <mxCell id="0" />
        <mxCell id="1" parent="0" />
        <mxCell id="dcI_YtUWgUMhvirrNMS7-13" style="edgeStyle=orthogonalEdgeStyle;rounded=0;orthogonalLoop=1;jettySize=auto;html=1;entryX=0.5;entryY=0;entryDx=0;entryDy=0;fontSize=24;" edge="1" parent="1" source="dcI_YtUWgUMhvirrNMS7-1" target="dcI_YtUWgUMhvirrNMS7-6">
          <mxGeometry relative="1" as="geometry" />
        </mxCell>
        <mxCell id="dcI_YtUWgUMhvirrNMS7-1" value="&lt;font style=&quot;font-size: 24px;&quot;&gt;Missing Emotional Support Leader&lt;/font&gt;" style="rounded=0;whiteSpace=wrap;html=1;" vertex="1" parent="1">
          <mxGeometry x="510" y="120" width="210" height="140" as="geometry" />
        </mxCell>
        <mxCell id="dcI_YtUWgUMhvirrNMS7-11" style="edgeStyle=orthogonalEdgeStyle;rounded=0;orthogonalLoop=1;jettySize=auto;html=1;fontSize=24;" edge="1" parent="1" source="dcI_YtUWgUMhvirrNMS7-3" target="dcI_YtUWgUMhvirrNMS7-1">
          <mxGeometry relative="1" as="geometry" />
        </mxCell>
        <mxCell id="dcI_YtUWgUMhvirrNMS7-3" value="&lt;font style=&quot;font-size: 24px;&quot;&gt;Age&lt;/font&gt;" style="rounded=0;whiteSpace=wrap;html=1;" vertex="1" parent="1">
          <mxGeometry x="230" y="120" width="120" height="60" as="geometry" />
        </mxCell>
        <mxCell id="dcI_YtUWgUMhvirrNMS7-12" style="edgeStyle=orthogonalEdgeStyle;rounded=0;orthogonalLoop=1;jettySize=auto;html=1;fontSize=24;" edge="1" parent="1" source="dcI_YtUWgUMhvirrNMS7-5" target="dcI_YtUWgUMhvirrNMS7-1">
          <mxGeometry relative="1" as="geometry" />
        </mxCell>
        <mxCell id="dcI_YtUWgUMhvirrNMS7-5" value="&lt;font style=&quot;font-size: 24px;&quot;&gt;Gender&lt;/font&gt;" style="rounded=0;whiteSpace=wrap;html=1;" vertex="1" parent="1">
          <mxGeometry x="230" y="210" width="120" height="60" as="geometry" />
        </mxCell>
        <mxCell id="dcI_YtUWgUMhvirrNMS7-14" style="edgeStyle=orthogonalEdgeStyle;rounded=0;orthogonalLoop=1;jettySize=auto;html=1;fontSize=24;" edge="1" parent="1" source="dcI_YtUWgUMhvirrNMS7-6" target="dcI_YtUWgUMhvirrNMS7-1">
          <mxGeometry relative="1" as="geometry" />
        </mxCell>
        <mxCell id="dcI_YtUWgUMhvirrNMS7-6" value="&lt;font style=&quot;font-size: 24px;&quot;&gt;Connect With Leader&lt;/font&gt;" style="rounded=0;whiteSpace=wrap;html=1;" vertex="1" parent="1">
          <mxGeometry x="510" y="330" width="210" height="105" as="geometry" />
        </mxCell>
      </root>
    </mxGraphModel>
  </diagram>
</mxfile>
